<?xml version="1.0" encoding="utf-8"?>
<!-- Generator: Adobe Illustrator 24.0.0, SVG Export Plug-In . SVG Version: 6.00 Build 0)  -->
<svg version="1.2" baseProfile="tiny" id="Ebene_1" xmlns="http://www.w3.org/2000/svg" xmlns:xlink="http://www.w3.org/1999/xlink"
	 x="0px" y="0px" viewBox="0 0 320 50" xml:space="preserve">
<path id="Type" fill="#004070" d="M170.09,34.26c-0.02,0.18,0.11,0.33,0.28,0.33h0.23c0.26,0,0.59,0,0.64-0.33l2.16-15.45h0.02
	l8.78,16.04h0.41c0.2,0,0.41-0.11,0.44-0.33l2.47-17.61c0.02-0.18-0.11-0.33-0.28-0.33h-0.51c-0.18,0-0.36,0.15-0.38,0.33
	l-2.11,15.39h-0.05l-8.83-15.99h-0.38c-0.2,0-0.36,0.13-0.41,0.33L170.09,34.26z M155.28,34.26c-0.02,0.18,0.11,0.33,0.28,0.33h9.27
	c0.18,0,0.33-0.15,0.36-0.33l0.07-0.41c0.02-0.18-0.11-0.33-0.28-0.33h-8.37l1.08-7.62h7.21c0.18,0,0.36-0.15,0.38-0.33l0.05-0.44
	c0.02-0.18-0.11-0.33-0.28-0.33h-7.21l1-7.11h8.34c0.18,0,0.36-0.15,0.38-0.33l0.05-0.44c0.02-0.18-0.11-0.33-0.28-0.33h-9.27
	c-0.15,0-0.33,0.15-0.36,0.33L155.28,34.26z M141.05,32.73c0.28,0.31,1.85,2.11,4.48,2.11c3.2,0,5.87-2.06,5.87-5.1
	c0-2.45-1.78-3.6-4.48-4.89c-1.88-0.9-3.24-1.8-3.24-3.6c0-1.7,1.39-3.84,4.4-3.84c1.73,0,3.09,1.13,3.16,1.18
	c0.23,0.15,0.41,0.07,0.57-0.13l0.23-0.31c0.23-0.31,0.05-0.46-0.02-0.54c0,0-1.52-1.31-3.78-1.31c-4.09,0-5.77,2.73-5.77,5.05
	c0,2.37,1.6,3.42,3.84,4.56c2.29,1.16,3.86,2.06,3.86,3.96c0,2.22-2.11,3.89-4.53,3.89c-2.09,0-3.53-1.7-3.73-1.93
	c-0.15-0.2-0.36-0.18-0.54,0.05l-0.31,0.31C140.79,32.48,140.92,32.61,141.05,32.73 M134.61,34.26c-0.02,0.18,0.11,0.33,0.28,0.33
	h0.54c0.18,0,0.36-0.13,0.41-0.33l2.42-17.35c0.02-0.18-0.11-0.33-0.28-0.33h-0.57c-0.23,0-0.36,0.15-0.38,0.33L134.61,34.26z
	 M119.81,34.26c-0.02,0.18,0.11,0.33,0.28,0.33h9.27c0.18,0,0.33-0.15,0.36-0.33l0.07-0.41c0.02-0.18-0.11-0.33-0.28-0.33h-8.37
	l1.08-7.62h7.21c0.18,0,0.36-0.15,0.38-0.33l0.05-0.44c0.02-0.18-0.11-0.33-0.28-0.33h-7.21l1-7.11h8.34c0.18,0,0.36-0.15,0.38-0.33
	l0.05-0.44c0.02-0.18-0.11-0.33-0.28-0.33h-9.27c-0.15,0-0.33,0.15-0.36,0.33L119.81,34.26z M106.05,26.56l1.24-8.81h4.82
	c1.96,0,3.37,1.65,3.37,3.76c0,2.83-2.24,5.05-4.61,5.05H106.05z M103.74,34.26c-0.02,0.18,0.11,0.33,0.28,0.33h0.46
	c0.26,0,0.44-0.15,0.46-0.33l0.93-6.62h4.09c0.31,0,0.64,0,0.95-0.02l2.37,6.74c0.05,0.15,0.13,0.23,0.31,0.23h0.75
	c0.28,0,0.36-0.26,0.26-0.46l-2.4-6.67c2.58-0.69,4.56-3.14,4.56-6.1c0-2.71-2.01-4.79-4.43-4.79h-5.8c-0.2,0-0.33,0.15-0.36,0.33
	L103.74,34.26z M85.97,24.78l0.72-5.12h3.53c0.95,0,1.67,0.98,1.67,2.14c0,1.62-1.08,2.98-2.71,2.98L85.97,24.78L85.97,24.78z
	 M81.29,34.1c-0.05,0.26,0.11,0.49,0.36,0.49h2.5c0.24,0,0.46-0.23,0.49-0.49l0.93-6.56h2.45l1.88,6.64
	c0.07,0.31,0.31,0.41,0.57,0.41h2.45c0.38,0,0.54-0.33,0.44-0.67l-2.11-6.59c2.45-0.77,4.09-2.81,4.09-5.94
	c0-2.65-1.83-4.81-4.35-4.81h-6.8c-0.23,0-0.46,0.23-0.49,0.49L81.29,34.1z M66.74,34.1c-0.05,0.26,0.11,0.49,0.36,0.49h9.53
	c0.26,0,0.49-0.23,0.51-0.49l0.28-2.11c0.02-0.25-0.11-0.49-0.36-0.49h-6.62l0.64-4.51h5.46c0.23,0,0.46-0.2,0.51-0.49l0.31-2.14
	c0.02-0.26-0.15-0.49-0.38-0.49h-5.46l0.59-4.22h6.59c0.25,0,0.49-0.24,0.51-0.49l0.31-2.11c0.02-0.26-0.13-0.49-0.38-0.49h-9.52
	c-0.23,0-0.46,0.23-0.49,0.49L66.74,34.1z M47.81,34.15c-0.02,0.23,0.15,0.44,0.36,0.44h2.47c0.26,0,0.49-0.23,0.51-0.49l1.39-10.71
	h0.02l7.83,11.46h0.69c0.23,0,0.46-0.2,0.49-0.46l2.45-17.33c0.02-0.26-0.15-0.49-0.38-0.49h-2.5c-0.26,0-0.46,0.23-0.49,0.49
	l-1.39,10.38h-0.02l-7.85-11.12h-0.67c-0.23,0-0.46,0.2-0.49,0.46L47.81,34.15z M37.39,34.1c-0.02,0.26,0.15,0.49,0.38,0.49h2.5
	c0.24,0,0.49-0.23,0.51-0.49l2.04-14.45h3.4c0.26,0,0.49-0.24,0.51-0.49l0.31-2.11c0.02-0.26-0.13-0.49-0.38-0.49H36.43
	c-0.23,0-0.46,0.23-0.49,0.49l-0.31,2.11c-0.02,0.26,0.13,0.49,0.38,0.49h3.4L37.39,34.1z M27.04,34.1
	c-0.05,0.26,0.13,0.49,0.36,0.49h2.52c0.23,0,0.46-0.23,0.49-0.49l2.4-17.05c0.05-0.26-0.13-0.49-0.36-0.49h-2.52
	c-0.23,0-0.46,0.23-0.49,0.49L27.04,34.1z M12.49,34.1c-0.05,0.26,0.11,0.49,0.36,0.49h9.52c0.26,0,0.49-0.23,0.51-0.49l0.28-2.11
	c0.02-0.25-0.11-0.49-0.36-0.49H16.2l0.64-4.51h5.46c0.23,0,0.46-0.2,0.51-0.49l0.31-2.14c0.02-0.26-0.15-0.49-0.38-0.49h-5.46
	l0.59-4.22h6.59c0.26,0,0.49-0.24,0.51-0.49l0.31-2.11c0.02-0.26-0.13-0.49-0.38-0.49h-9.52c-0.24,0-0.46,0.23-0.49,0.49L12.49,34.1
	z M0,34.1c-0.02,0.26,0.13,0.49,0.38,0.49h8.6c0.26,0,0.49-0.23,0.51-0.49l0.28-2.11c0.02-0.25-0.11-0.49-0.36-0.49H3.74l2.04-14.45
	c0.02-0.26-0.13-0.49-0.36-0.49h-2.5c-0.26,0-0.49,0.23-0.51,0.49L0,34.1z"/>
<path id="Line_2" fill="#E40521" d="M238.07,0.12c-0.35,4.2-0.77,8.4-1.27,12.58c-0.48,4.19-1.05,8.36-1.62,12.53
	c-0.59,4.17-1.21,8.33-1.89,12.49c-0.67,4.16-1.42,8.3-2.25,12.44c0.34-4.2,0.77-8.4,1.27-12.58c0.49-4.19,1.05-8.36,1.62-12.53
	c0.6-4.17,1.21-8.33,1.89-12.49C236.49,8.4,237.24,4.25,238.07,0.12"/>
<path id="Line_1" fill="#E40521" d="M288.87,0.12c-0.35,4.2-0.77,8.4-1.27,12.58c-0.48,4.19-1.05,8.36-1.62,12.53
	c-0.59,4.17-1.21,8.33-1.89,12.49c-0.67,4.16-1.42,8.3-2.25,12.44c0.34-4.2,0.77-8.4,1.27-12.58c0.49-4.19,1.05-8.36,1.62-12.53
	c0.6-4.17,1.21-8.33,1.89-12.49C287.29,8.4,288.04,4.25,288.87,0.12"/>
<path id="Ship" fill="#004070" d="M298.18,33.85c2.17,0.88,4.11,1.31,5.91,1.31c2.04,0,3.68-0.54,5.25-1.07l0.02-0.01
	c2.51-0.84,5.11-1.71,9.93,0.32l0.71-1.7c-2-0.81-3.79-1.25-5.47-1.34l-0.12-0.01l0.04-0.12l2.78-7.42l-8.15-4.66l-3.1,1.77V17.1
	h6.2v1.92l1.82,1.04V17.2c0-1.06-0.86-1.91-1.91-1.91h-2.1v-4.01h-1.82v4.01h-2.1c-1.05,0-1.91,0.86-1.91,1.91v4.77L304.11,22
	l-3.18,1.81l2.76,7.36c0.63,0.04,1.23-0.01,1.89-0.13l-2.41-6.42l5.9-3.37l0.04,0.02l5.85,3.34l-0.02,0.07l-2.52,6.72l-0.06,0.01
	c-1.31,0.17-2.45,0.53-3.59,0.91c-2.66,0.89-5.18,1.73-9.88-0.17L298.18,33.85z"/>
<path id="Plane" fill="#004070" d="M246.65,26.34v-2.02l9.02-1.55l-2.43,2.43L246.65,26.34z M249.77,30.56l4.36,2.54
	c0.06,0.04,0.12,0.05,0.19,0.05c0.09,0,0.18-0.03,0.25-0.09l4.23-3.68l9.11,2.17l0.04,0.01l1.44-1.2l-5.86-5.26l5.77-6.33l0.09-0.1
	l-0.12-0.05c-0.17-0.07-0.35-0.14-0.53-0.22c-1.09-0.48-2.33-1.02-3.48,0.13l-11.78,11.75h-3.47L249.77,30.56z M254.32,35.14
	c-0.41,0-0.83-0.11-1.19-0.32l-6.43-3.76l2.42-2.76h3.54l11.2-11.17c2.72-2.72,6.22-0.66,7.6,0.35c0.04,0.03,0.07,0.05,0.07,0.06
	l0.95,0.66l-6.14,6.77l6.13,5.46l-4.03,3.29l-9.08-2.15l-0.05-0.01l-3.46,3.01C255.44,34.93,254.89,35.14,254.32,35.14"/>
<path id="Bus" fill="#004070" d="M218.67,21.48v-2.69c0-1.5-1.23-2.73-2.73-2.73h-12.63c-1.5,0-2.72,1.23-2.72,2.73v2.69h-1.19V26
	h1.19v7.23c0,1,0.8,1.81,1.8,1.81h2.73c1,0,1.81-0.81,1.81-1.81h5.42c0,1,0.81,1.81,1.81,1.81h2.71c1,0,1.81-0.81,1.81-1.81
	l0.01-7.23h1.19v-4.52H218.67z M216.87,33.23h-2.72v-1.81h-9.03v1.81h-2.73V27.8h14.48L216.87,33.23L216.87,33.23z M216.87,26h-6.33
	v-2.84h-1.81V26h-6.34v-7.21c0-0.51,0.41-0.92,0.92-0.92h12.63c0.51,0,0.93,0.41,0.93,0.92V26z"/>
</svg>
